0
SECTION
2
HEADER
9
$INSUNITS
70
4
0
ENDSEC
0
SECTION
2
TABLES
0
TABLE
2
LTYPE
0
LTYPE
72
65
70
64
2
CONTINUOUS
3
______
73
0
40
0
0
ENDTAB
0
TABLE
2
LAYER
0
ENDTAB
0
ENDSEC
0
SECTION
2
ENTITIES
0
LINE
8
0
10
85.75
20
-158.5
11
85.75
21
-70.5
0
LINE
8
0
10
87.75
20
-68.5
11
142.7028389
21
-68.5
0
LINE
8
0
10
144.6914572
20
-66.7130662
11
145.0585428
21
-63.2869338
0
LINE
8
0
10
147.0471611
20
-61.5
11
161.5276252
21
-61.5
0
LINE
8
0
10
163.5054979
20
-59.796681
11
163.7445021
21
-58.203319
0
LINE
8
0
10
165.7223748
20
-56.5
11
184.2344355
21
-56.5
0
LINE
8
0
10
186.2189913
20
-58.2519306
11
186.5310087
21
-60.7480694
0
LINE
8
0
10
188.5155645
20
-62.5
11
203.1884977
21
-62.5
0
LINE
8
0
10
205.1287674
20
-64.0148678
11
205.5001
21
-65.5
0
LINE
8
0
10
205.5001
20
-65.5
11
243.5
21
-65.5
0
LINE
8
0
10
245.5
20
-67.5
11
245.5
21
-155.5
0
LINE
8
0
10
204.3798035
20
-157.5
11
243.5
21
-157.5
0
LINE
8
0
10
202.9054952
20
-156.8514493
11
201.3445048
21
-155.1485507
0
LINE
8
0
10
199.8701965
20
-154.5
11
184.5155645
21
-154.5
0
LINE
8
0
10
182.5310087
20
-152.7480694
11
182.2189913
21
-150.2519306
0
LINE
8
0
10
180.2344355
20
-148.5
11
169.7223748
21
-148.5
0
LINE
8
0
10
167.7445021
20
-150.203319
11
167.5054979
21
-151.796681
0
LINE
8
0
10
165.5276252
20
-153.5
11
151.0471611
21
-153.5
0
LINE
8
0
10
149.0585428
20
-155.2869338
11
148.6914572
21
-158.7130662
0
LINE
8
0
10
87.75
20
-160.5
11
146.7028389
21
-160.5
0
ARC
8
0
10
87.75
20
-70.5
40
2
50
90
51
180
0
ARC
8
0
10
142.7028389
20
-66.5
40
2
50
270
51
353.8844981
0
ARC
8
0
10
147.0471611
20
-63.5
40
2
50
90
51
173.8844981
0
ARC
8
0
10
161.5276252
20
-59.5
40
2
50
270
51
351.4692321
0
ARC
8
0
10
165.7223748
20
-58.5
40
2
50
90
51
171.4692321
0
ARC
8
0
10
184.2344355
20
-58.5
40
2
50
7.1250142
51
90
0
ARC
8
0
10
188.5155645
20
-60.5
40
2
50
187.1250142
51
270
0
ARC
8
0
10
203.1884977
20
-64.5
40
2
50
14.038043
51
90
0
ARC
8
0
10
243.5
20
-67.5
40
2
50
0
51
90
0
ARC
8
0
10
243.5
20
-155.5
40
2
50
270
51
0
0
ARC
8
0
10
204.3798035
20
-155.5
40
2
50
222.5104474
51
270
0
ARC
8
0
10
199.8701965
20
-156.5
40
2
50
42.5104474
51
90
0
ARC
8
0
10
184.5155645
20
-152.5
40
2
50
187.1250142
51
270
0
ARC
8
0
10
180.2344355
20
-150.5
40
2
50
7.1250142
51
90
0
ARC
8
0
10
169.7223748
20
-150.5
40
2
50
90
51
171.4692321
0
ARC
8
0
10
165.5276252
20
-151.5
40
2
50
270
51
351.4692321
0
ARC
8
0
10
151.0471611
20
-155.5
40
2
50
90
51
173.8844981
0
ARC
8
0
10
146.7028389
20
-158.5
40
2
50
270
51
353.8844981
0
ARC
8
0
10
87.75
20
-158.5
40
2
50
180
51
270
0
ENDSEC
0
EOF